<mxfile host="app.diagrams.net" modified="2024-03-04T13:06:26.635Z" agent="Mozilla/5.0 (Windows NT 10.0; Win64; x64) AppleWebKit/537.36 (KHTML, like Gecko) Chrome/122.0.0.0 Safari/537.36" version="24.0.1" etag="1lkAB-5imeQePxkcjArO" type="github">
  <diagram name="페이지-1" id="Rc93LEwK0JIFNrfUtHhz">
    <mxGraphModel>
      <root>
        <mxCell id="0" />
        <mxCell id="1" parent="0" />
      </root>
    </mxGraphModel>
  </diagram>
</mxfile>
